<svg width="32" height="32" viewBox="0 0 32 32" fill="none" xmlns="http://www.w3.org/2000/svg">
<g opacity="0.5">
<path d="M26 18C26 19.9778 25.4135 21.9112 24.3147 23.5557C23.2159 25.2002 21.6541 26.4819 19.8268 27.2388C17.9996 27.9957 15.9889 28.1937 14.0491 27.8079C12.1093 27.422 10.3275 26.4696 8.92894 25.0711C7.53041 23.6725 6.578 21.8907 6.19215 19.9509C5.8063 18.0111 6.00433 16.0004 6.76121 14.1732C7.51809 12.3459 8.79981 10.7841 10.4443 9.6853C12.0888 8.58649 14.0222 8 16 8H20V13L26 7L20 1V6H16C13.6266 6 11.3066 6.70379 9.33316 8.02236C7.35977 9.34094 5.8217 11.2151 4.91345 13.4078C4.0052 15.6005 3.76756 18.0133 4.23058 20.3411C4.6936 22.6689 5.83649 24.8071 7.51472 26.4853C9.19295 28.1635 11.3312 29.3064 13.6589 29.7694C15.9867 30.2324 18.3995 29.9948 20.5922 29.0866C22.7849 28.1783 24.6591 26.6402 25.9776 24.6668C27.2962 22.6935 28 20.3734 28 18H26Z" fill="#F1F1F1"/>
<path d="M19.63 22.13C19.1881 22.1408 18.7498 22.0484 18.35 21.86C17.995 21.6798 17.6894 21.4154 17.46 21.09C17.2085 20.7103 17.032 20.286 16.94 19.84C16.8218 19.2879 16.7648 18.7245 16.77 18.16C16.7659 17.5955 16.8229 17.0322 16.94 16.48C17.0339 16.0346 17.2102 15.6106 17.46 15.23C17.6894 14.9046 17.995 14.6402 18.35 14.46C18.7498 14.2716 19.1881 14.1792 19.63 14.19C20.0455 14.1584 20.4621 14.2337 20.8402 14.4087C21.2183 14.5838 21.5453 14.8528 21.79 15.19C22.3057 16.0769 22.5491 17.0958 22.49 18.12C22.5491 19.1442 22.3057 20.1631 21.79 21.05C21.5546 21.402 21.2317 21.6866 20.853 21.876C20.4743 22.0653 20.0528 22.1529 19.63 22.13ZM19.63 20.91C19.8316 20.922 20.0325 20.8768 20.2095 20.7795C20.3864 20.6821 20.5322 20.5367 20.63 20.36C20.869 19.8923 20.9957 19.3752 21 18.85V17.47C21.0216 16.9542 20.9223 16.4405 20.71 15.97C20.5982 15.7987 20.4455 15.6581 20.2656 15.5607C20.0858 15.4633 19.8845 15.4123 19.68 15.4123C19.4755 15.4123 19.2742 15.4633 19.0944 15.5607C18.9145 15.6581 18.7618 15.7987 18.65 15.97C18.4377 16.4405 18.3384 16.9542 18.36 17.47V18.85C18.3394 19.3689 18.4386 19.8856 18.65 20.36C18.7454 20.5343 18.8878 20.6783 19.0611 20.7756C19.2344 20.8728 19.4315 20.9194 19.63 20.91Z" fill="#F1F1F1"/>
<path d="M10.63 22V20.82H12.63V15.63L10.77 16.63L10.22 15.57L12.54 14.27H14V20.77H15.78V22H10.63Z" fill="#F1F1F1"/>
</g>
</svg>
