<svg width="48" height="48" viewBox="0 0 48 48" fill="none" xmlns="http://www.w3.org/2000/svg">
<path d="M24 3C19.8466 3 15.7865 4.23163 12.333 6.53914C8.8796 8.84665 6.18798 12.1264 4.59854 15.9636C3.0091 19.8009 2.59323 24.0233 3.40352 28.0969C4.21381 32.1705 6.21386 35.9123 9.15077 38.8492C12.0877 41.7861 15.8295 43.7862 19.9031 44.5965C23.9767 45.4068 28.1991 44.9909 32.0364 43.4015C35.8736 41.812 39.1534 39.1204 41.4609 35.667C43.7684 32.2135 45 28.1534 45 24C45 18.4305 42.7875 13.089 38.8492 9.15076C34.911 5.21249 29.5696 3 24 3V3ZM35.171 25.3418L17.171 34.3418C16.9423 34.4561 16.6881 34.5101 16.4327 34.4987C16.1772 34.4872 15.9289 34.4106 15.7114 34.2761C15.4939 34.1417 15.3143 33.9539 15.1898 33.7305C15.0653 33.5072 15 33.2557 15 33V15C15 14.7443 15.0653 14.4928 15.1898 14.2695C15.3143 14.0461 15.4939 13.8583 15.7114 13.7239C15.9289 13.5894 16.1772 13.5128 16.4327 13.5013C16.6881 13.4899 16.9423 13.5439 17.171 13.6583L35.171 22.6583C35.4202 22.7828 35.6298 22.9743 35.7763 23.2113C35.9228 23.4483 36.0004 23.7214 36.0004 24C36.0004 24.2786 35.9228 24.5517 35.7763 24.7887C35.6298 25.0257 35.4202 25.2172 35.171 25.3418Z" fill="#F1F1F1"/>
</svg>
