<svg width="32" height="32" viewBox="0 0 32 32" fill="none" xmlns="http://www.w3.org/2000/svg">
<g opacity="0.5">
<path d="M4 18C4 20.3734 4.70379 22.6935 6.02236 24.6668C7.34094 26.6402 9.21509 28.1783 11.4078 29.0866C13.6005 29.9948 16.0133 30.2324 18.3411 29.7694C20.6689 29.3064 22.8071 28.1635 24.4853 26.4853C26.1635 24.8071 27.3064 22.6689 27.7694 20.3411C28.2324 18.0133 27.9948 15.6005 27.0866 13.4078C26.1783 11.2151 24.6402 9.34094 22.6668 8.02236C20.6935 6.70379 18.3734 6 16 6H12V1L6 7L12 13V8H16C17.9778 8 19.9112 8.58649 21.5557 9.6853C23.2002 10.7841 24.4819 12.3459 25.2388 14.1732C25.9957 16.0004 26.1937 18.0111 25.8079 19.9509C25.422 21.8907 24.4696 23.6725 23.0711 25.0711C21.6725 26.4696 19.8907 27.422 17.9509 27.8079C16.0111 28.1937 14.0004 27.9957 12.1732 27.2388C10.3459 26.4819 8.78412 25.2002 7.6853 23.5557C6.58649 21.9112 6 19.9778 6 18H4Z" fill="#F1F1F1"/>
<path d="M19.63 22.13C19.1881 22.1408 18.7498 22.0484 18.35 21.86C17.995 21.6798 17.6894 21.4154 17.46 21.09C17.2085 20.7103 17.032 20.286 16.94 19.84C16.8218 19.2879 16.7648 18.7245 16.77 18.16C16.7659 17.5955 16.8229 17.0322 16.94 16.48C17.0339 16.0346 17.2102 15.6106 17.46 15.23C17.6894 14.9046 17.995 14.6402 18.35 14.46C18.7498 14.2716 19.1881 14.1792 19.63 14.19C20.0455 14.1584 20.4621 14.2337 20.8402 14.4087C21.2183 14.5838 21.5453 14.8528 21.79 15.19C22.3056 16.0769 22.5491 17.0958 22.49 18.12C22.5491 19.1442 22.3056 20.1631 21.79 21.05C21.5546 21.402 21.2317 21.6866 20.853 21.876C20.4743 22.0653 20.0528 22.1529 19.63 22.13ZM19.63 20.91C19.8316 20.922 20.0325 20.8768 20.2094 20.7795C20.3864 20.6821 20.5322 20.5367 20.63 20.36C20.869 19.8923 20.9957 19.3752 21 18.85V17.47C21.0216 16.9542 20.9223 16.4405 20.71 15.97C20.5982 15.7987 20.4455 15.6581 20.2656 15.5607C20.0858 15.4633 19.8845 15.4123 19.68 15.4123C19.4755 15.4123 19.2742 15.4633 19.0944 15.5607C18.9145 15.6581 18.7618 15.7987 18.65 15.97C18.4377 16.4405 18.3384 16.9542 18.36 17.47V18.85C18.3394 19.3689 18.4386 19.8856 18.65 20.36C18.7454 20.5343 18.8878 20.6783 19.0611 20.7756C19.2344 20.8728 19.4315 20.9194 19.63 20.91Z" fill="#F1F1F1"/>
<path d="M10.63 22V20.82H12.63V15.63L10.77 16.63L10.22 15.57L12.54 14.27H14V20.77H15.78V22H10.63Z" fill="#F1F1F1"/>
</g>
</svg>
