<svg width="343" height="48" viewBox="0 0 343 48" fill="none" xmlns="http://www.w3.org/2000/svg">
<path d="M31.1561 19.1789C31.1561 13.1359 31.1561 7.09289 31.1561 1.0499C31.1561 0.404991 31.0671 0.391602 31.8002 0.391602C34.1222 0.393833 36.4421 0.391602 38.7641 0.391602C38.8828 0.391602 39.0014 0.391602 39.1201 0.396065C39.262 0.400528 39.3383 0.483094 39.3446 0.628144C39.351 0.770962 39.351 0.91378 39.351 1.0566C39.351 13.1426 39.351 25.2286 39.351 37.3168C39.351 37.3346 39.351 37.3525 39.351 37.3703C39.351 37.9907 39.351 37.9929 38.7747 37.9929C36.7408 37.9929 34.7069 37.9929 32.6752 37.9929C32.2684 37.9929 31.8616 37.9862 31.4548 37.9929C31.2387 37.9974 31.1413 37.9104 31.154 37.6805C31.1625 37.5377 31.154 37.3949 31.154 37.2521C31.154 31.2269 31.154 25.2018 31.154 19.1766L31.1561 19.1789Z" fill="#252525"/>
<path d="M40.9894 0.474162C41.1861 0.364862 41.3314 0.402783 41.4677 0.402783C43.9866 0.400552 46.5078 0.409474 49.0267 0.391629C49.3955 0.389399 49.6101 0.521005 49.8202 0.804293C51.4249 2.96799 52.6721 5.31906 53.6332 7.8285C54.592 10.3357 55.2223 12.9232 55.5352 15.5843C55.7967 17.8172 55.8168 20.0523 55.5866 22.2963C55.1642 26.4006 54.0243 30.2818 52.1178 33.9423C51.4339 35.2561 50.6449 36.5075 49.7442 37.6853C49.6078 37.8637 49.4849 37.9931 49.2279 37.9931C46.5122 37.9842 43.7966 37.9886 41.09 37.9886C41.0162 37.8704 41.09 37.8079 41.1503 37.7477C43.1194 35.7759 44.4046 33.3891 45.3612 30.8105C46.3111 28.2475 46.9235 25.602 47.223 22.8807C47.4152 21.1229 47.4845 19.3608 47.3906 17.6008C47.1582 13.2377 46.2172 9.04195 44.2772 5.10045C43.477 3.47434 42.4802 1.98429 41.1838 0.701685C41.1213 0.641458 41.0699 0.570079 40.9894 0.474162Z" fill="#252525"/>
<path d="M29.4713 37.9306C29.2855 38.0154 29.1242 37.9797 28.9675 37.9819C26.4953 37.9841 24.0254 37.973 21.5533 37.9931C21.148 37.9953 20.9017 37.8726 20.6643 37.5492C18.3086 34.3641 16.7299 30.8221 15.7491 27.0035C14.9609 23.9276 14.6318 20.8005 14.7997 17.6355C15.0147 13.596 15.9484 9.71947 17.6301 6.03026C18.4833 4.15888 19.5021 2.38342 20.7516 0.744018C20.9129 0.534352 21.0629 0.391602 21.3585 0.391602C24.0277 0.402754 26.6946 0.398293 29.3638 0.398293C29.4131 0.398293 29.4735 0.380449 29.5139 0.496434C29.3056 0.721713 29.0772 0.962605 28.8555 1.20796C27.3642 2.85851 26.296 4.76781 25.4698 6.81093C24.3949 9.4652 23.7119 12.2221 23.3514 15.0615C23.188 16.3529 23.0849 17.6533 23.0894 18.947C23.1141 24.1239 24.0859 29.1001 26.4864 33.744C27.2186 35.1626 28.1322 36.4562 29.2519 37.6005C29.3347 37.6852 29.4534 37.7522 29.4713 37.9261V37.9306Z" fill="#252525"/>
<path d="M49.8124 0.40055C53.0873 0.40055 56.3645 0.409472 59.6394 0.391629C60.1461 0.389399 60.5392 0.523219 60.9299 0.815395C63.5275 2.7558 65.6374 5.08428 67.295 7.783C68.8365 10.2944 69.85 12.9886 70.2549 15.8569C71.1879 22.4498 69.49 28.3892 65.1164 33.6327C63.8614 35.1382 62.4288 36.4809 60.821 37.6585C60.5084 37.8882 60.1935 37.9953 59.7862 37.993C56.3977 37.9774 53.0091 37.9841 49.6182 37.9841H49.2772C49.2843 37.7923 49.4501 37.8035 49.5567 37.7566C51.9365 36.7396 54.115 35.4326 55.9998 33.7197C59.1066 30.8961 61.0886 27.468 62.1068 23.5337C62.5212 21.9368 62.7603 20.3198 62.6893 18.6693C62.5827 16.207 61.9765 13.8451 60.9702 11.579C58.7538 6.5853 54.984 3.00113 49.7721 0.739563C49.5945 0.661501 49.3885 0.619124 49.1873 0.40055H49.8124Z" fill="#252525"/>
<path d="M19.6387 0.400523C18.7179 0.935839 17.7927 1.39532 16.9134 1.94179C12.5434 4.66075 9.65633 8.54848 8.12311 13.5046C7.5785 15.2622 7.24385 17.0645 7.20448 18.9046C7.16293 20.8027 7.48663 22.6607 8.005 24.483C9.03517 28.1009 10.8396 31.2481 13.532 33.8466C15.1987 35.4526 17.1015 36.7039 19.1837 37.6764C19.3368 37.7477 19.514 37.7856 19.6759 37.9864H19.1969C16.0998 37.9864 13.0049 37.9819 9.90786 37.9931C9.53603 37.9931 9.24076 37.8972 8.94987 37.6607C4.49674 34.034 1.59871 29.428 0.43512 23.7158C0.0173659 21.6615 -0.0810578 19.5804 0.0611098 17.4972C0.317011 13.7745 1.41936 10.3128 3.34628 7.13212C4.84013 4.66744 6.69706 2.53287 8.94112 0.748479C9.24295 0.507587 9.54916 0.391602 9.94504 0.391602C13.0421 0.407215 16.137 0.400523 19.2341 0.400523C19.3697 0.400523 19.5031 0.400523 19.6387 0.400523Z" fill="#252525"/>
<path d="M86.2368 0.542886H93.3319L107.574 37.6123H100.17L97.0851 29.2833H82.3294L79.2445 37.6123H71.9952L86.2368 0.542886ZM94.8743 23.3707L89.6815 9.28325L84.4887 23.3707H94.8743ZM131.104 37.6123H124.626V33.4992C123.735 34.9045 122.535 36.0185 121.027 36.8411C119.553 37.6294 117.908 38.0236 116.091 38.0236C113.212 38.0236 110.881 37.1496 109.099 35.4015C107.316 33.6192 106.425 31.2884 106.425 28.4092V10.9285H112.852V26.9182C112.852 28.4949 113.315 29.7803 114.24 30.7743C115.2 31.7683 116.451 32.2653 117.993 32.2653C120.084 32.2653 121.712 31.4255 122.878 29.746C124.043 28.0322 124.626 25.6671 124.626 22.6509V10.9285H131.104V37.6123ZM145.086 38.0236C142.481 38.0236 140.219 37.4409 138.3 36.2755C136.38 35.1102 134.906 33.4992 133.878 31.4426C132.85 29.3518 132.336 26.9525 132.336 24.2447C132.336 21.5369 132.85 19.1547 133.878 17.0982C134.906 15.0073 136.363 13.3964 138.248 12.2653C140.168 11.0999 142.413 10.5172 144.984 10.5172C146.595 10.5172 148.086 10.8257 149.457 11.4426C150.828 12.0596 151.907 12.8994 152.696 13.9619V0.131574H159.174V37.6123H152.696V34.4761C152.044 35.5043 151.033 36.3612 149.662 37.0468C148.291 37.698 146.766 38.0236 145.086 38.0236ZM146.012 32.4195C148.137 32.4195 149.851 31.6826 151.153 30.2087C152.456 28.7006 153.107 26.7126 153.107 24.2447C153.107 21.8111 152.456 19.8574 151.153 18.3835C149.851 16.8754 148.137 16.1213 146.012 16.1213C143.887 16.1213 142.173 16.8754 140.87 18.3835C139.568 19.8574 138.917 21.8111 138.917 24.2447C138.917 26.6783 139.568 28.6491 140.87 30.1573C142.173 31.6654 143.887 32.4195 146.012 32.4195ZM161.767 10.9285H168.246V37.6123H161.767V10.9285ZM168.554 0.131574V6.91821H161.51V0.131574H168.554ZM182.968 38.0236C180.363 38.0236 178.015 37.4409 175.924 36.2755C173.868 35.0759 172.257 33.4306 171.091 31.3398C169.926 29.249 169.343 26.8839 169.343 24.2447C169.343 21.6397 169.926 19.2918 171.091 17.201C172.257 15.1102 173.868 13.482 175.924 12.3167C178.015 11.117 180.363 10.5172 182.968 10.5172C185.539 10.5172 187.852 11.117 189.909 12.3167C192 13.482 193.628 15.1102 194.793 17.201C195.993 19.2918 196.593 21.6397 196.593 24.2447C196.593 26.8497 195.993 29.2147 194.793 31.3398C193.628 33.4306 192.017 35.0759 189.96 36.2755C187.904 37.4409 185.573 38.0236 182.968 38.0236ZM182.968 32.4195C185.059 32.4195 186.756 31.6654 188.058 30.1573C189.36 28.6491 190.012 26.6783 190.012 24.2447C190.012 21.8454 189.343 19.8916 188.007 18.3835C186.704 16.8754 185.025 16.1213 182.968 16.1213C180.843 16.1213 179.146 16.8754 177.878 18.3835C176.61 19.8916 175.976 21.8454 175.976 24.2447C175.976 26.6783 176.61 28.6491 177.878 30.1573C179.146 31.6654 180.843 32.4195 182.968 32.4195ZM197.835 0.542886H209.815C213.311 0.542886 216.499 1.24554 219.378 2.65086C222.257 4.02189 224.536 6.11272 226.216 8.92335C227.93 11.6997 228.787 15.0759 228.787 19.0519C228.787 23.0622 227.93 26.4555 226.216 29.2318C224.536 32.0082 222.257 34.099 219.378 35.5043C216.499 36.9096 213.311 37.6123 209.815 37.6123H197.835V0.542886ZM209.249 31.5455C211.512 31.5455 213.585 31.1342 215.47 30.3115C217.356 29.4546 218.881 28.1007 220.046 26.2498C221.212 24.3647 221.794 21.9653 221.794 19.0519C221.794 16.1727 221.212 13.8077 220.046 11.9568C218.881 10.0716 217.356 8.7177 215.47 7.89507C213.585 7.03817 211.512 6.60972 209.249 6.60972H204.725V31.5455H209.249ZM229.935 10.9285H236.413V37.6123H229.935V10.9285ZM236.722 0.131574V6.91821H229.678V0.131574H236.722ZM251.084 47.638C247.417 47.638 244.435 46.8154 242.138 45.1701C239.876 43.5592 238.539 41.2113 238.128 38.1264H244.657C244.829 39.4632 245.48 40.5086 246.611 41.2627C247.742 42.051 249.233 42.4452 251.084 42.4452C253.106 42.4452 254.683 41.9139 255.814 40.8514C256.98 39.8231 257.562 38.3835 257.562 36.5326V33.1907C256.911 34.1162 255.917 34.8702 254.58 35.4529C253.244 36.0013 251.753 36.2755 250.107 36.2755C247.571 36.2755 245.36 35.7443 243.475 34.6817C241.59 33.5849 240.133 32.0767 239.105 30.1573C238.111 28.2036 237.614 25.9585 237.614 23.4221C237.614 20.8514 238.111 18.6063 239.105 16.6868C240.133 14.7331 241.573 13.225 243.424 12.1624C245.274 11.0656 247.451 10.5172 249.953 10.5172C251.564 10.5172 253.038 10.8257 254.375 11.4426C255.711 12.0253 256.774 12.8308 257.562 13.8591V10.9285H264.041V35.8642C264.041 39.4975 262.875 42.3595 260.544 44.4504C258.214 46.5755 255.06 47.638 251.084 47.638ZM251.084 30.7228C253.175 30.7228 254.837 30.0716 256.071 28.7691C257.305 27.4324 257.922 25.65 257.922 23.4221C257.922 21.2284 257.305 19.4632 256.071 18.1264C254.837 16.7897 253.175 16.1213 251.084 16.1213C248.993 16.1213 247.314 16.7897 246.046 18.1264C244.812 19.4632 244.195 21.2284 244.195 23.4221C244.195 25.6157 244.812 27.3809 246.046 28.7177C247.314 30.0545 248.993 30.7228 251.084 30.7228ZM265.105 24.2447C265.105 21.8454 265.585 19.6003 266.545 17.5095C267.539 15.4186 269.012 13.7391 270.966 12.4709C272.954 11.1684 275.336 10.5172 278.113 10.5172C280.889 10.5172 283.254 11.1341 285.208 12.3681C287.162 13.602 288.618 15.213 289.578 17.201C290.572 19.189 291.069 21.297 291.069 23.5249C291.069 24.2104 291.035 24.9988 290.966 25.8899H271.48C271.754 28.015 272.526 29.6603 273.794 30.8257C275.062 31.9911 276.673 32.5737 278.627 32.5737C280.135 32.5737 281.403 32.2481 282.431 31.5969C283.494 30.9456 284.18 30.0373 284.488 28.8719H290.915C290.469 31.7168 289.115 33.9619 286.853 35.6072C284.625 37.2181 281.832 38.0236 278.473 38.0236C275.662 38.0236 273.245 37.3895 271.223 36.1213C269.201 34.8188 267.676 33.1222 266.647 31.0313C265.619 28.9062 265.105 26.644 265.105 24.2447ZM284.077 21.0056C283.94 19.3604 283.357 18.0236 282.329 16.9953C281.3 15.9671 279.895 15.4529 278.113 15.4529C276.433 15.4529 275.045 15.9328 273.948 16.8925C272.851 17.8522 272.097 19.2233 271.686 21.0056H284.077ZM302.253 38.0236C299.99 38.0236 297.985 37.6294 296.237 36.8411C294.489 36.0185 293.101 34.8702 292.073 33.3964C291.079 31.9225 290.547 30.243 290.479 28.3578H296.803C296.871 29.4204 297.42 30.3801 298.448 31.237C299.476 32.0939 300.745 32.5223 302.253 32.5223C303.555 32.5223 304.601 32.2653 305.389 31.7511C306.212 31.237 306.623 30.5686 306.623 29.746C306.623 28.4092 305.663 27.5523 303.744 27.1753L299.579 26.3012C297.214 25.7871 295.312 24.9131 293.872 23.6791C292.433 22.4109 291.713 20.5772 291.713 18.1779C291.713 16.7725 292.124 15.4872 292.947 14.3218C293.769 13.1564 294.935 12.231 296.443 11.5455C297.951 10.8599 299.699 10.5172 301.687 10.5172C304.635 10.5172 307.12 11.2884 309.142 12.8308C311.164 14.3389 312.347 16.3955 312.69 19.0005H306.366C306.229 17.9722 305.697 17.1667 304.772 16.584C303.881 16.0013 302.853 15.71 301.687 15.71C300.625 15.71 299.768 15.9328 299.116 16.3784C298.465 16.824 298.14 17.4238 298.14 18.1779C298.14 19.3775 299.099 20.183 301.019 20.5943L305.183 21.4683C307.754 21.9825 309.725 22.8394 311.096 24.039C312.501 25.2387 313.204 27.0896 313.204 29.5917C313.204 31.1342 312.741 32.5566 311.816 33.8591C310.89 35.1273 309.588 36.1384 307.908 36.8925C306.263 37.6466 304.378 38.0236 302.253 38.0236ZM328.854 16.327H322.633V28.512C322.633 29.746 322.976 30.7057 323.661 31.3912C324.347 32.0767 325.238 32.4195 326.335 32.4195C327.226 32.4195 328.066 32.2995 328.854 32.0596V37.6637C327.894 37.9037 326.798 38.0236 325.564 38.0236C322.719 38.0236 320.439 37.2695 318.726 35.7614C317.012 34.2533 316.155 32.0596 316.155 29.1804V16.327H311.63V10.9285H316.155V3.06216H322.633V10.9285H328.854V16.327Z" fill="#252525"/>
</svg>
