<svg width="321" height="143" viewBox="0 0 321 143" fill="none" xmlns="http://www.w3.org/2000/svg">
<path d="M6 8.1806H25.8223C31.6074 8.1806 36.882 9.34328 41.6462 11.6686C46.4103 13.9373 50.1819 17.397 52.961 22.0477C55.7969 26.6417 57.2148 32.2283 57.2148 38.8074C57.2148 45.4432 55.7969 51.0581 52.961 55.6521C50.1819 60.2461 46.4103 63.7058 41.6462 66.0312C36.882 68.3566 31.6074 69.5192 25.8223 69.5192H6V8.1806ZM24.8865 59.4805C28.6298 59.4805 32.0611 58.7999 35.1805 57.4387C38.2999 56.0208 40.8238 53.7805 42.7521 50.7178C44.6805 47.5984 45.6446 43.6283 45.6446 38.8074C45.6446 34.0432 44.6805 30.1298 42.7521 27.0671C40.8238 23.9477 38.2999 21.7074 35.1805 20.3462C32.0611 18.9283 28.6298 18.2194 24.8865 18.2194H17.4V59.4805H24.8865Z" fill="white"/>
<path d="M60.8165 25.3656H71.5358V69.5192H60.8165V25.3656ZM72.0463 7.5V18.7298H60.3911V7.5H72.0463Z" fill="white"/>
<path d="M97.5134 86.1087C91.4448 86.1087 86.5105 84.7476 82.7105 82.0252C78.9672 79.3595 76.7553 75.4744 76.0747 70.37H86.8791C87.1627 72.5819 88.2403 74.3118 90.1119 75.5595C91.9836 76.864 94.4507 77.5162 97.5134 77.5162C100.86 77.5162 103.469 76.6371 105.34 74.8789C107.269 73.1774 108.233 70.7954 108.233 67.7327V62.2028C107.155 63.7342 105.51 64.9819 103.298 65.9461C101.087 66.8536 98.6194 67.3073 95.897 67.3073C91.7 67.3073 88.0418 66.4282 84.9224 64.67C81.803 62.8551 79.3926 60.3596 77.6911 57.1834C76.0463 53.9506 75.2239 50.2357 75.2239 46.0387C75.2239 41.785 76.0463 38.0701 77.6911 34.894C79.3926 31.6611 81.7747 29.1656 84.8373 27.4074C87.9 25.5925 91.5015 24.685 95.6418 24.685C98.3074 24.685 100.746 25.1955 102.958 26.2164C105.17 27.1805 106.928 28.5134 108.233 30.2149V25.3656H118.952V66.6267C118.952 72.6386 117.024 77.3744 113.167 80.8341C109.31 84.3505 104.092 86.1087 97.5134 86.1087ZM97.5134 58.1193C100.973 58.1193 103.724 57.0417 105.766 54.8864C107.807 52.6745 108.828 49.7253 108.828 46.0387C108.828 42.4089 107.807 39.488 105.766 37.276C103.724 35.0641 100.973 33.9581 97.5134 33.9581C94.0537 33.9581 91.2746 35.0641 89.1761 37.276C87.1343 39.488 86.1134 42.4089 86.1134 46.0387C86.1134 49.6685 87.1343 52.5894 89.1761 54.8014C91.2746 57.0133 94.0537 58.1193 97.5134 58.1193Z" fill="white"/>
<path d="M124.712 25.3656H135.431V69.5192H124.712V25.3656ZM135.942 7.5V18.7298H124.287V7.5H135.942Z" fill="white"/>
<path d="M165.833 34.2984H155.539V54.4611C155.539 56.5029 156.106 58.0909 157.24 59.2252C158.375 60.3596 159.849 60.9267 161.664 60.9267C163.139 60.9267 164.528 60.7282 165.833 60.3312V69.6043C164.245 70.0013 162.43 70.1998 160.388 70.1998C155.681 70.1998 151.909 68.9521 149.073 66.4566C146.237 63.961 144.819 60.3312 144.819 55.567V34.2984H137.333V25.3656H144.819V12.3492H155.539V25.3656H165.833V34.2984Z" fill="white"/>
<path d="M182.019 70.1998C179.07 70.1998 176.432 69.661 174.107 68.5834C171.782 67.4491 169.938 65.9178 168.577 63.9894C167.273 62.061 166.62 59.8775 166.62 57.4387C166.62 53.582 167.953 50.4909 170.619 48.1656C173.285 45.7835 177.085 44.2805 182.019 43.6566L190.867 42.4656C193.249 42.1253 194.44 40.9626 194.44 38.9775C194.44 37.276 193.674 35.8581 192.143 34.7238C190.611 33.5895 188.598 33.0223 186.102 33.0223C183.607 33.0223 181.537 33.6462 179.892 34.894C178.304 36.1417 177.425 37.8716 177.255 40.0835H166.876C167.386 35.3193 169.343 31.5761 172.746 28.8537C176.149 26.0746 180.601 24.685 186.102 24.685C191.944 24.685 196.567 26.2447 199.97 29.3641C203.429 32.4268 205.159 36.5671 205.159 41.785V57.3536C205.159 59.7357 206.067 60.9267 207.881 60.9267C208.278 60.9267 208.761 60.87 209.328 60.7566V69.5192C207.569 69.8595 205.868 70.0297 204.223 70.0297C201.898 70.0297 199.97 69.4909 198.438 68.4133C196.964 67.3357 196.113 65.776 195.886 63.7342C194.922 65.7192 193.192 67.3073 190.696 68.4983C188.201 69.6327 185.308 70.1998 182.019 70.1998ZM183.805 62.0327C187.152 62.0327 189.789 60.9551 191.717 58.7999C193.702 56.6446 194.695 53.8655 194.695 50.4626V49.1865L183.805 50.973C179.495 51.6536 177.34 53.6387 177.34 56.9282C177.34 58.4029 177.935 59.6223 179.126 60.5864C180.317 61.5506 181.877 62.0327 183.805 62.0327Z" fill="white"/>
<path d="M211.541 7.5H222.26V69.5192H211.541V7.5Z" fill="white"/>
<path d="M130.152 76.4808H153.718C159.559 76.4808 164.21 77.842 167.67 80.5643C171.186 83.2867 172.944 87.1718 172.944 92.2195C172.944 94.9419 172.236 97.3807 170.818 99.5359C169.456 101.634 167.67 103.222 165.458 104.3C168.634 105.491 171.158 107.419 173.03 110.085C174.901 112.694 175.837 115.87 175.837 119.613C175.837 125.455 173.909 129.964 170.052 133.14C166.252 136.26 161.091 137.819 154.568 137.819H130.152V76.4808ZM152.782 127.781C160.439 127.781 164.267 124.888 164.267 119.103C164.267 116.211 163.303 114.027 161.374 112.552C159.503 111.021 156.639 110.255 152.782 110.255H141.552V127.781H152.782ZM152.186 100.472C155.249 100.472 157.546 99.8479 159.077 98.6001C160.665 97.2956 161.459 95.4807 161.459 93.1553C161.459 90.7733 160.665 88.9583 159.077 87.7106C157.489 86.4061 155.136 85.7539 152.016 85.7539H141.552V100.472H152.186Z" fill="white"/>
<path d="M199.731 138.5C195.42 138.5 191.535 137.536 188.076 135.607C184.673 133.622 182.007 130.9 180.079 127.44C178.15 123.981 177.186 120.067 177.186 115.7C177.186 111.39 178.15 107.505 180.079 104.045C182.007 100.585 184.673 97.8911 188.076 95.9628C191.535 93.9777 195.42 92.9852 199.731 92.9852C203.985 92.9852 207.813 93.9777 211.216 95.9628C214.676 97.8911 217.37 100.585 219.298 104.045C221.283 107.505 222.276 111.39 222.276 115.7C222.276 120.01 221.283 123.924 219.298 127.44C217.37 130.9 214.704 133.622 211.301 135.607C207.898 137.536 204.041 138.5 199.731 138.5ZM199.731 129.227C203.191 129.227 205.998 127.979 208.153 125.484C210.308 122.988 211.386 119.727 211.386 115.7C211.386 111.73 210.28 108.497 208.068 106.002C205.913 103.506 203.134 102.258 199.731 102.258C196.214 102.258 193.407 103.506 191.309 106.002C189.21 108.497 188.161 111.73 188.161 115.7C188.161 119.727 189.21 122.988 191.309 125.484C193.407 127.979 196.214 129.227 199.731 129.227Z" fill="white"/>
<path d="M246.093 138.5C241.783 138.5 237.898 137.536 234.438 135.607C231.035 133.622 228.369 130.9 226.441 127.44C224.513 123.981 223.548 120.067 223.548 115.7C223.548 111.39 224.513 107.505 226.441 104.045C228.369 100.585 231.035 97.8911 234.438 95.9628C237.898 93.9777 241.783 92.9852 246.093 92.9852C250.347 92.9852 254.175 93.9777 257.578 95.9628C261.038 97.8911 263.732 100.585 265.66 104.045C267.645 107.505 268.638 111.39 268.638 115.7C268.638 120.01 267.645 123.924 265.66 127.44C263.732 130.9 261.066 133.622 257.663 135.607C254.26 137.536 250.404 138.5 246.093 138.5ZM246.093 129.227C249.553 129.227 252.36 127.979 254.515 125.484C256.671 122.988 257.748 119.727 257.748 115.7C257.748 111.73 256.642 108.497 254.43 106.002C252.275 103.506 249.496 102.258 246.093 102.258C242.577 102.258 239.769 103.506 237.671 106.002C235.572 108.497 234.523 111.73 234.523 115.7C234.523 119.727 235.572 122.988 237.671 125.484C239.769 127.979 242.577 129.227 246.093 129.227Z" fill="white"/>
<path d="M272.293 75.8002H283.012V109.319L299.006 93.6658H313.724L295.773 110.936L315 137.819H301.728L288.457 118.167L283.012 123.357V137.819H272.293V75.8002Z" fill="white"/>
</svg>
