<svg width="50" height="27" viewBox="0 0 50 27" fill="none" xmlns="http://www.w3.org/2000/svg">
<path d="M21.7279 13.0508C21.7279 8.85299 21.7279 4.65514 21.7279 0.457299C21.7279 0.00930098 21.6658 0 22.177 0C23.7964 0.00155016 25.4143 0 27.0336 0C27.1164 0 27.1991 0 27.2818 0.00310033C27.3808 0.00620066 27.434 0.0635568 27.4385 0.164317C27.4429 0.263528 27.4429 0.362738 27.4429 0.461949C27.4429 8.85764 27.4429 17.2533 27.4429 25.6506C27.4429 25.663 27.4429 25.6754 27.4429 25.6878C27.4429 26.1187 27.4429 26.1203 27.041 26.1203C25.6226 26.1203 24.2042 26.1203 22.7873 26.1203C22.5036 26.1203 22.2199 26.1156 21.9362 26.1203C21.7855 26.1234 21.7175 26.0629 21.7264 25.9032C21.7323 25.804 21.7264 25.7048 21.7264 25.6056C21.7264 21.4202 21.7264 17.2347 21.7264 13.0493L21.7279 13.0508Z" fill="#8F53F0"/>
<path d="M28.5855 0.0573518C28.7227 -0.018575 28.824 0.00776699 28.9191 0.00776699C30.6757 0.00621747 32.434 0.0124156 34.1906 1.93619e-05C34.4478 -0.00153016 34.5974 0.0898919 34.744 0.286682C35.8631 1.78972 36.7329 3.42292 37.4031 5.16614C38.0718 6.90781 38.5114 8.70526 38.7296 10.5538C38.912 12.1049 38.926 13.6575 38.7654 15.2164C38.4708 18.0675 37.6759 20.7637 36.3463 23.3064C35.8694 24.2191 35.3191 25.0884 34.691 25.9065C34.5959 26.0305 34.5102 26.1204 34.3309 26.1204C32.4371 26.1142 30.5432 26.1173 28.6556 26.1173C28.6042 26.0352 28.6556 25.9918 28.6977 25.9499C30.071 24.5802 30.9672 22.9222 31.6343 21.1309C32.2968 19.3505 32.7239 17.5128 32.9327 15.6223C33.0668 14.4013 33.1151 13.1772 33.0496 11.9546C32.8875 8.92374 32.2313 6.00908 30.8784 3.27107C30.3203 2.14146 29.6252 1.10638 28.7211 0.215404C28.6775 0.173566 28.6416 0.123981 28.5855 0.0573518Z" fill="#8F53F0"/>
<path d="M20.5529 26.077C20.4233 26.1359 20.3109 26.1111 20.2016 26.1126C18.4775 26.1142 16.755 26.1064 15.031 26.1204C14.7483 26.1219 14.5766 26.0367 14.411 25.812C12.7682 23.5994 11.6673 21.1389 10.9833 18.4863C10.4336 16.3496 10.204 14.1773 10.3211 11.9787C10.471 9.17265 11.1222 6.47973 12.295 3.91697C12.89 2.61699 13.6006 1.38364 14.4719 0.244811C14.5844 0.0991638 14.689 0 14.8951 0C16.7566 0.00774717 18.6165 0.0046483 20.478 0.0046483C20.5123 0.0046483 20.5545 -0.00774717 20.5826 0.0728234C20.4374 0.229316 20.2781 0.396655 20.1235 0.567093C19.0834 1.71367 18.3385 3.03999 17.7623 4.45927C17.0127 6.3031 16.5364 8.2182 16.285 10.1906C16.171 11.0878 16.0992 11.9911 16.1023 12.8897C16.1195 16.486 16.7972 19.9428 18.4713 23.1687C18.9819 24.1541 19.6191 25.0528 20.3999 25.8477C20.4577 25.9065 20.5404 25.953 20.5529 26.0739V26.077Z" fill="#8F53F0"/>
<path d="M34.7386 0.0062164C37.0224 0.0062164 39.3079 0.0124138 41.5918 1.90407e-05C41.9452 -0.0015303 42.2193 0.0914302 42.4918 0.294394C44.3033 1.64232 45.7747 3.25983 46.9307 5.13454C48.0057 6.87909 48.7125 8.7507 48.9949 10.7431C49.6455 15.323 48.4615 19.4489 45.4114 23.0914C44.5362 24.1372 43.5371 25.0699 42.4158 25.888C42.1978 26.0475 41.9782 26.1219 41.6942 26.1204C39.331 26.1095 36.9679 26.1142 34.6031 26.1142H34.3653C34.3703 25.9809 34.4859 25.9887 34.5602 25.9561C36.2198 25.2496 37.7391 24.3417 39.0536 23.1518C41.2202 21.1904 42.6024 18.809 43.3125 16.076C43.6015 14.9667 43.7683 13.8434 43.7188 12.6969C43.6444 10.9864 43.2217 9.34564 42.5199 7.77151C40.9742 4.30254 38.3452 1.81275 34.7105 0.241716C34.5866 0.187489 34.443 0.158052 34.3026 0.0062164H34.7386Z" fill="#8F53F0"/>
<path d="M13.6958 0.00619774C13.0536 0.378062 12.4084 0.697246 11.7952 1.07686C8.74763 2.96562 6.73421 5.66629 5.66496 9.10913C5.28515 10.3301 5.05178 11.582 5.02432 12.8603C4.99534 14.1789 5.22109 15.4696 5.58259 16.7355C6.30101 19.2486 7.55941 21.4349 9.43708 23.24C10.5994 24.3556 11.9264 25.2248 13.3785 25.9004C13.4853 25.9499 13.6088 25.9763 13.7217 26.1157H13.3877C11.2278 26.1157 9.06948 26.1126 6.90962 26.1204C6.65031 26.1204 6.44439 26.0538 6.24153 25.8895C3.13597 23.3701 1.11492 20.1706 0.303447 16.2024C0.0121108 14.7754 -0.0565287 13.3298 0.0426172 11.8826C0.22108 9.29661 0.989842 6.89189 2.33365 4.68239C3.37545 2.97027 4.67045 1.48746 6.23543 0.24791C6.44592 0.0805707 6.65947 0 6.93555 0C9.0954 0.010846 11.2537 0.00619774 13.4136 0.00619774C13.5082 0.00619774 13.6012 0.00619774 13.6958 0.00619774Z" fill="#8F53F0"/>
</svg>
