<svg width="60" height="60" viewBox="0 0 60 60" fill="none" xmlns="http://www.w3.org/2000/svg">
<g clip-path="url(#clip0_117_7522)">
<path d="M0 22.4C0 14.5593 0 10.6389 1.52591 7.64413C2.86814 5.00986 5.00986 2.86814 7.64413 1.52591C10.6389 0 14.5593 0 22.4 0H37.6C45.4407 0 49.3611 0 52.3559 1.52591C54.9901 2.86814 57.1319 5.00986 58.4741 7.64413C60 10.6389 60 14.5593 60 22.4V37.6C60 45.4407 60 49.3611 58.4741 52.3559C57.1319 54.9901 54.9901 57.1319 52.3559 58.4741C49.3611 60 45.4407 60 37.6 60H22.4C14.5593 60 10.6389 60 7.64413 58.4741C5.00986 57.1319 2.86814 54.9901 1.52591 52.3559C0 49.3611 0 45.4407 0 37.6V22.4Z" fill="#F8EEEE"/>
<path d="M26.5392 17H20.6079C17.9556 20.3914 16.3063 25.1978 16.3091 29.9986C16.3091 34.7966 17.9584 39.603 20.6079 42.9972H26.5392C24.8253 41.3941 23.7408 39.0724 23.058 36.832C21.7009 32.385 21.7009 27.6122 23.058 23.1652C23.7408 20.9248 24.8253 18.6031 26.5392 17Z" fill="#8F53F0"/>
<path d="M39.629 17H33.6978C35.4117 18.6031 36.4962 20.9248 37.179 23.1652C38.5361 27.6122 38.5361 32.385 37.179 36.832C36.4962 39.0724 35.4117 41.3941 33.6978 42.9972H39.629C42.2814 39.6058 43.9307 34.7994 43.9279 29.9986C43.9279 25.2006 42.2786 20.3942 39.629 17Z" fill="#8F53F0"/>
<path d="M33.0943 17H27.1518V42.9972H33.0943V17Z" fill="#8F53F0"/>
<path d="M11.0715 30.0014C11.0715 27.4045 12.3106 20.2286 19.9811 17H12.6253C12.6253 17 6 21.36 6 30.0014C6 38.6428 12.6253 43 12.6253 43H19.9811C12.3106 39.7742 11.0687 32.5983 11.0687 30.0014H11.0715Z" fill="#8F53F0"/>
<path d="M49.1683 30.0006C49.1683 27.4065 47.9264 20.2278 40.2559 17.002H47.6117C47.6117 17.002 54.237 21.3621 54.237 30.0006C54.237 38.6392 47.6117 42.9992 47.6117 42.9992H40.2559C47.9264 39.7735 49.1683 32.5976 49.1683 30.0006Z" fill="#8F53F0"/>
</g>
<defs>
<clipPath id="clip0_117_7522">
<path d="M0 22.4C0 14.5593 0 10.6389 1.52591 7.64413C2.86814 5.00986 5.00986 2.86814 7.64413 1.52591C10.6389 0 14.5593 0 22.4 0H37.6C45.4407 0 49.3611 0 52.3559 1.52591C54.9901 2.86814 57.1319 5.00986 58.4741 7.64413C60 10.6389 60 14.5593 60 22.4V37.6C60 45.4407 60 49.3611 58.4741 52.3559C57.1319 54.9901 54.9901 57.1319 52.3559 58.4741C49.3611 60 45.4407 60 37.6 60H22.4C14.5593 60 10.6389 60 7.64413 58.4741C5.00986 57.1319 2.86814 54.9901 1.52591 52.3559C0 49.3611 0 45.4407 0 37.6V22.4Z" fill="white"/>
</clipPath>
</defs>
</svg>
